<svg id="Capa_1" data-name="Capa 1" xmlns="http://www.w3.org/2000/svg" viewBox="0 0 280.65 40.8"><defs><style>.cls-1{fill:#fff;}</style></defs><path class="cls-1" d="M28.57,84.2a11,11,0,0,1,.32-2.42c.2-.91.5-2.09.88-3.53s.79-2.78,1-3.84a14.15,14.15,0,0,0,.34-2.83q0-3.27-2.88-3.27a6.92,6.92,0,0,0-1.59.2L22.81,86.6H15.9l6.53-30.53,7.1-1L27.18,66.2h.38A5.35,5.35,0,0,0,31,64.91a8.92,8.92,0,0,0,2.47-3.24,9.2,9.2,0,0,0,.89-3.82,4.75,4.75,0,0,0-5.28-5,15.66,15.66,0,0,0-6.81,1.39,10.43,10.43,0,0,0-4.54,4,11.78,11.78,0,0,0-1.61,6.24A6.21,6.21,0,0,0,16.48,67a4,4,0,0,1,.33.79A5.85,5.85,0,0,1,13,66.66a4.45,4.45,0,0,1-1.27-3.58,9.06,9.06,0,0,1,2.52-6,18.66,18.66,0,0,1,6.45-4.71,18.82,18.82,0,0,1,7.88-1.8,15.3,15.3,0,0,1,6,1.06,8.13,8.13,0,0,1,3.65,2.81,6.62,6.62,0,0,1,1.2,3.81A8.48,8.48,0,0,1,38,62.79a11,11,0,0,1-3.79,3.7,4.25,4.25,0,0,1,2.57,1.75,5.84,5.84,0,0,1,.74,3.05,13.64,13.64,0,0,1-.34,2.95q-.33,1.56-1,3.87c-.25,1-.49,2-.72,2.92a11.12,11.12,0,0,0-.33,2.4,3.87,3.87,0,0,0,.5,2,2.66,2.66,0,0,0,1.37,1.2,18.39,18.39,0,0,1-4.75.82Q28.57,87.42,28.57,84.2Z" transform="translate(-11.39 -50.6)"/><path class="cls-1" d="M41.58,85q-2-1.85-2-5.78a23.93,23.93,0,0,1,1.3-7.3,17,17,0,0,1,4.22-6.89,10.14,10.14,0,0,1,7.44-2.9q5.28,0,5.28,4.61a8.61,8.61,0,0,1-1.53,4.94,11.47,11.47,0,0,1-4.08,3.63,13.28,13.28,0,0,1-5.43,1.56q-.09,1.44-.09,1.92A4.68,4.68,0,0,0,47.53,82a3.57,3.57,0,0,0,2.64.84,8,8,0,0,0,4.44-1.2A21.62,21.62,0,0,0,58.67,78H60.3Q55,86.89,47.1,86.89A7.75,7.75,0,0,1,41.58,85Zm9-11.69a8.68,8.68,0,0,0,2.59-2.92,7.59,7.59,0,0,0,1-3.75c0-1.31-.4-2-1.2-2q-1.73,0-3.39,3A23.05,23.05,0,0,0,47.2,74.6,6.28,6.28,0,0,0,50.58,73.35Z" transform="translate(-11.39 -50.6)"/><path class="cls-1" d="M59.7,85.45a6,6,0,0,1-1.42-4.32A16.4,16.4,0,0,1,58.67,78l2.88-13.49H60l.39-1.92h1.58L63.37,56l7.11-1L68.84,62.6h2.88l-.38,1.92H68.46l-3.07,14.4a5.85,5.85,0,0,0-.19,1.54,1.79,1.79,0,0,0,.45,1.37,2.28,2.28,0,0,0,1.51.4,3.68,3.68,0,0,0,2.6-1.17,6.72,6.72,0,0,0,1.72-3h2q-1.77,5.19-4.56,7a10,10,0,0,1-5.52,1.85A5,5,0,0,1,59.7,85.45Z" transform="translate(-11.39 -50.6)"/><path class="cls-1" d="M74.75,62.6h6.91l-.62,3A18.75,18.75,0,0,1,84,63.37a5.59,5.59,0,0,1,2.85-.77,3,3,0,0,1,2.43,1.06,3.82,3.82,0,0,1,.89,2.54,3.62,3.62,0,0,1-.92,2.45,3.17,3.17,0,0,1-2.54,1.06,1.65,1.65,0,0,1-1.42-.51,3.81,3.81,0,0,1-.55-1.46,3.74,3.74,0,0,0-.29-.91.51.51,0,0,0-.52-.29,3.26,3.26,0,0,0-1.71.41,12,12,0,0,0-1.8,1.41L76.57,86.6H69.66Z" transform="translate(-11.39 -50.6)"/><path class="cls-1" d="M90.92,85q-2.06-1.83-2.06-5.76a23.35,23.35,0,0,1,1.3-7.27,17,17,0,0,1,4.22-6.87,10.21,10.21,0,0,1,7.49-2.9c3.77,0,5.81,2.16,6.09,6.48a3.48,3.48,0,0,0,1.88-1.18,14.93,14.93,0,0,0,1.53-2.13h1.54a33.8,33.8,0,0,1-2.31,4A7.68,7.68,0,0,1,108,71.77a22.27,22.27,0,0,1-1.84,7.92A13.32,13.32,0,0,1,102.06,85a9.05,9.05,0,0,1-5.52,1.84A8.17,8.17,0,0,1,90.92,85Zm10.85-5.38a20.86,20.86,0,0,0,2.11-7.1c-.76-.29-1.15-1-1.15-2.16a2.48,2.48,0,0,1,1.35-2.5,4.62,4.62,0,0,0-.51-2.13,1.48,1.48,0,0,0-1.32-.6c-1,0-2.06.76-3,2.28A20.34,20.34,0,0,0,96.9,72.9,22,22,0,0,0,96,78.59a6.17,6.17,0,0,0,.53,3.09,2.13,2.13,0,0,0,1.92.79C99.64,82.47,100.75,81.51,101.77,79.59Z" transform="translate(-11.39 -50.6)"/><path class="cls-1" d="M126.78,84.63c-1.7-1.82-2.54-4.84-2.54-9.07a38.56,38.56,0,0,1,1.7-10.85,25.19,25.19,0,0,1,5.47-10A12.4,12.4,0,0,1,141,50.6a9.69,9.69,0,0,1,5.8,1.59A5.53,5.53,0,0,1,149,57a5.63,5.63,0,0,1-.81,3.24,2.89,2.89,0,0,1-2.55,1.18,3.3,3.3,0,0,1-2.73-1.25,3.74,3.74,0,0,0,1.53-1.73,5.73,5.73,0,0,0,.68-2.68,3.19,3.19,0,0,0-.7-2.12,2.79,2.79,0,0,0-2.23-.81c-1.7,0-3.31,1.16-4.85,3.48a29.62,29.62,0,0,0-3.72,8.76,39.41,39.41,0,0,0-1.42,10.17,10.26,10.26,0,0,0,1.25,5.57c.83,1.28,2.34,1.92,4.51,1.92a11.1,11.1,0,0,0,5.24-1.25A12.1,12.1,0,0,0,147.32,78l1.11.48a12.69,12.69,0,0,1-3.55,5,16,16,0,0,1-10.13,3.89Q129.32,87.37,126.78,84.63Z" transform="translate(-11.39 -50.6)"/><path class="cls-1" d="M148.57,85q-2.06-1.83-2.06-5.76A23,23,0,0,1,147.85,72a17.3,17.3,0,0,1,4.32-6.89,10.32,10.32,0,0,1,7.49-2.9q6.15,0,6.14,7.68v.05a2.07,2.07,0,0,0,.53,0,9.88,9.88,0,0,0,3.65-.84,18.1,18.1,0,0,0,3.74-2l.44,1.29a11.58,11.58,0,0,1-3.63,2.52,18.79,18.79,0,0,1-4.87,1.47,21.76,21.76,0,0,1-2,7.63,12.87,12.87,0,0,1-4.08,5,9.17,9.17,0,0,1-5.42,1.77A8.17,8.17,0,0,1,148.57,85Zm9.84-3.82a11.87,11.87,0,0,0,2-3.6,23.57,23.57,0,0,0,1.25-5.06c-.87-.19-1.3-.86-1.3-2a2.52,2.52,0,0,1,1.49-2.59,5.12,5.12,0,0,0-.48-2.18,1.49,1.49,0,0,0-1.35-.6c-1,0-2.08.77-3.07,2.3a20.61,20.61,0,0,0-2.4,5.52,21,21,0,0,0-.91,5.67,6.06,6.06,0,0,0,.53,3.09,2.13,2.13,0,0,0,1.92.79A3.14,3.14,0,0,0,158.41,81.15Z" transform="translate(-11.39 -50.6)"/><path class="cls-1" d="M169.28,85.45a5.94,5.94,0,0,1-1.41-4.32,17.1,17.1,0,0,1,.38-3.12L173.39,54l7.1-1L175,78.92a5.85,5.85,0,0,0-.19,1.54,1.76,1.76,0,0,0,.46,1.37,2.24,2.24,0,0,0,1.51.4,3.67,3.67,0,0,0,2.59-1.17,6.83,6.83,0,0,0,1.73-3h2q-1.77,5.19-4.56,7A9.93,9.93,0,0,1,173,86.89,5,5,0,0,1,169.28,85.45Z" transform="translate(-11.39 -50.6)"/><path class="cls-1" d="M182.41,85q-2-1.85-2-5.78a23.93,23.93,0,0,1,1.3-7.3A17,17,0,0,1,186,65.07a10.17,10.17,0,0,1,7.44-2.9q5.28,0,5.28,4.61a8.61,8.61,0,0,1-1.53,4.94,11.47,11.47,0,0,1-4.08,3.63,13.28,13.28,0,0,1-5.43,1.56q-.09,1.44-.09,1.92a4.68,4.68,0,0,0,.81,3.19,3.57,3.57,0,0,0,2.64.84,8,8,0,0,0,4.44-1.2A21.62,21.62,0,0,0,199.5,78h1.63q-5.32,8.88-13.2,8.88A7.75,7.75,0,0,1,182.41,85Zm9-11.69A8.68,8.68,0,0,0,194,70.43a7.59,7.59,0,0,0,1-3.75c0-1.31-.4-2-1.2-2q-1.72,0-3.39,3A23.05,23.05,0,0,0,188,74.6,6.28,6.28,0,0,0,191.41,73.35Z" transform="translate(-11.39 -50.6)"/><path class="cls-1" d="M200.84,85q-2-1.85-2-5.78a23.4,23.4,0,0,1,1.32-7.3,17.33,17.33,0,0,1,4.23-6.89,10,10,0,0,1,7.37-2.9,5.6,5.6,0,0,1,4.1,1.25,4.32,4.32,0,0,1,1.22,3.17,4.09,4.09,0,0,1-.72,2.59,2.21,2.21,0,0,1-1.82.91,3,3,0,0,1-1.68-.58,8.44,8.44,0,0,0,.58-2.83,2.74,2.74,0,0,0-.34-1.44,1.12,1.12,0,0,0-1-.53c-1,0-1.92.79-2.88,2.36a21.85,21.85,0,0,0-2.35,5.71,23.21,23.21,0,0,0-.91,6,4.68,4.68,0,0,0,.81,3.19,3.57,3.57,0,0,0,2.64.84,8,8,0,0,0,4.44-1.2A21.31,21.31,0,0,0,217.93,78h1.63q-5.33,8.88-13.2,8.88A7.75,7.75,0,0,1,200.84,85Z" transform="translate(-11.39 -50.6)"/><path class="cls-1" d="M219.27,85q-2-1.85-2-5.78a23.4,23.4,0,0,1,1.32-7.3,17.31,17.31,0,0,1,4.22-6.89,10,10,0,0,1,7.37-2.9c1.92,0,3.29.42,4.1,1.25a4.33,4.33,0,0,1,1.23,3.17,4.09,4.09,0,0,1-.72,2.59,2.23,2.23,0,0,1-1.83.91,3,3,0,0,1-1.68-.58,8.2,8.2,0,0,0,.58-2.83,2.65,2.65,0,0,0-.34-1.44,1.12,1.12,0,0,0-1-.53c-1,0-1.92.79-2.88,2.36a21.85,21.85,0,0,0-2.35,5.71,23.21,23.21,0,0,0-.91,6,4.62,4.62,0,0,0,.82,3.19,3.54,3.54,0,0,0,2.64.84,8,8,0,0,0,4.44-1.2A21.6,21.6,0,0,0,236.36,78H238q-5.33,8.88-13.2,8.88A7.75,7.75,0,0,1,219.27,85Z" transform="translate(-11.39 -50.6)"/><path class="cls-1" d="M237.39,85.45A5.94,5.94,0,0,1,236,81.13a17.1,17.1,0,0,1,.38-3.12l3.26-15.41h6.92l-3.46,16.32a5.85,5.85,0,0,0-.19,1.54,1.76,1.76,0,0,0,.46,1.37,2.24,2.24,0,0,0,1.51.4,3.66,3.66,0,0,0,2.59-1.17,6.73,6.73,0,0,0,1.73-3h2q-1.77,5.19-4.56,7a9.93,9.93,0,0,1-5.52,1.85A5,5,0,0,1,237.39,85.45Zm4.3-26.54a3.67,3.67,0,0,1-1.11-2.69,3.71,3.71,0,0,1,1.11-2.71,3.58,3.58,0,0,1,2.69-1.13,3.82,3.82,0,0,1,2.71,6.53,3.76,3.76,0,0,1-2.71,1.1A3.67,3.67,0,0,1,241.69,58.91Z" transform="translate(-11.39 -50.6)"/><path class="cls-1" d="M250.57,85c-1.38-1.22-2.06-3.14-2.06-5.76A22.77,22.77,0,0,1,249.85,72a17.3,17.3,0,0,1,4.32-6.89,10.3,10.3,0,0,1,7.49-2.9q6.13,0,6.14,7.68v.05a2,2,0,0,0,.53,0,9.88,9.88,0,0,0,3.65-.84,18.37,18.37,0,0,0,3.74-2l.43,1.29a11.42,11.42,0,0,1-3.62,2.52,18.79,18.79,0,0,1-4.87,1.47,21.76,21.76,0,0,1-2,7.63,13,13,0,0,1-4.08,5,9.17,9.17,0,0,1-5.42,1.77A8.17,8.17,0,0,1,250.57,85Zm9.84-3.82a11.87,11.87,0,0,0,2-3.6,23,23,0,0,0,1.24-5.06c-.86-.19-1.29-.86-1.29-2a2.51,2.51,0,0,1,1.49-2.59,5.12,5.12,0,0,0-.48-2.18,1.49,1.49,0,0,0-1.35-.6c-1.05,0-2.08.77-3.07,2.3a20.61,20.61,0,0,0-2.4,5.52,21,21,0,0,0-.91,5.67,6.06,6.06,0,0,0,.53,3.09,2.13,2.13,0,0,0,1.92.79A3.15,3.15,0,0,0,260.41,81.15Zm3.94-30.55h5l-5.81,9.07H260Z" transform="translate(-11.39 -50.6)"/><path class="cls-1" d="M283.07,85.35a6.28,6.28,0,0,1-1.16-3.88,12.29,12.29,0,0,1,.24-2.28c.16-.85.33-1.68.51-2.48s.29-1.31.36-1.53c.25-1.12.49-2.23.72-3.31a14,14,0,0,0,.33-2.64c0-1.64-.57-2.45-1.73-2.45a2.77,2.77,0,0,0-2.2,1.22,9.58,9.58,0,0,0-1.54,3.19L275.34,86.6h-6.92l5.09-24h6.91l-.52,2.5a7.32,7.32,0,0,1,5.61-2.69,5.49,5.49,0,0,1,3.89,1.34,5.34,5.34,0,0,1,1.44,4.08,15.75,15.75,0,0,1-.34,3.1c-.22,1.14-.54,2.52-1,4.15q-.37,1.48-.69,2.91a10.77,10.77,0,0,0-.31,2.23,2.3,2.3,0,0,0,.43,1.49,1.83,1.83,0,0,0,1.49.52A3.12,3.12,0,0,0,292,82a5.48,5.48,0,0,1-1.75,3.69,5.27,5.27,0,0,1-3.53,1.25A4.28,4.28,0,0,1,283.07,85.35Z" transform="translate(-11.39 -50.6)"/><path class="cls-1" d="M11.39,91.4V89H292v2.4Z" transform="translate(-11.39 -50.6)"/></svg>