<svg xmlns="http://www.w3.org/2000/svg" viewBox="0 0 576 512.01"><defs><style>.cls-1{fill:#fff;}.cls-2{fill:#3acf2a;}</style></defs><g id="Capa_1_copia" data-name="Capa 1 copia"><path class="cls-1" d="M552,64a24,24,0,0,1,23.4,29.32l-47.27,208A24,24,0,0,1,504.72,320H211.57l6.55,32H486.53a24,24,0,0,1,23.41,29.32l-5.52,24.28a56,56,0,1,1-63.6,10.4H231.18a56,56,0,1,1-67.05-8.57L93.88,64H24A24,24,0,0,1,0,40V24A24,24,0,0,1,24,0H126.53A24,24,0,0,1,150,19.19L159.21,64Z"/></g><g id="Capa_2" data-name="Capa 2"><path class="cls-2" d="M466.41,0C527.08.82,575.9,46.19,576,105.34c.1,58.29-47.86,105.21-109.41,105.3-60.67.1-109.49-46-109.59-105.14C356.9,47.21,404.86,1,466.41,0Z"/></g></svg>